<?xml version="1.0" encoding="UTF-8" standalone="no"?>
<svg
   version="1.1"
   id="Layer_1"
   x="0px"
   y="0px"
   width="100%"
   viewBox="0 0 1024 1024"
   enable-background="new 0 0 1024 1024"
   xml:space="preserve"
   sodipodi:docname="favicon.svg"
   inkscape:version="1.4.3 (0d15f75, 2025-12-25)"
   xmlns:inkscape="http://www.inkscape.org/namespaces/inkscape"
   xmlns:sodipodi="http://sodipodi.sourceforge.net/DTD/sodipodi-0.dtd"
   xmlns="http://www.w3.org/2000/svg"
   xmlns:svg="http://www.w3.org/2000/svg"><defs
   id="defs1" /><sodipodi:namedview
   id="namedview1"
   pagecolor="#505050"
   bordercolor="#ffffff"
   borderopacity="1"
   inkscape:showpageshadow="0"
   inkscape:pageopacity="0"
   inkscape:pagecheckerboard="1"
   inkscape:deskcolor="#505050"
   inkscape:zoom="0.50321497"
   inkscape:cx="503.76085"
   inkscape:cy="439.17613"
   inkscape:window-width="1512"
   inkscape:window-height="811"
   inkscape:window-x="0"
   inkscape:window-y="38"
   inkscape:window-maximized="0"
   inkscape:current-layer="Layer_1" />
<rect
   style="display:inline;opacity:1;fill:#ffffff;fill-opacity:1"
   id="rect1"
   width="1024"
   height="1024"
   x="0"
   y="0"
   ry="254.36446" /><path
   fill="#000000"
   opacity="1"
   stroke="none"
   d="m 757.12786,107.76159 c -87.00194,0.0141 -174.00397,0.003 -261.00593,0.0695 -12.98808,0.0103 -24.29852,4.47641 -33.44292,13.87145 -7.39773,7.60051 -13.46944,16.31053 -20.13036,24.52297 -11.91515,14.69057 -23.5199,29.63251 -35.29987,44.43321 -14.95686,18.79222 -29.96515,37.5435 -44.9397,56.3217 -11.87611,14.89277 -23.70267,29.82522 -35.6106,44.69252 -11.0979,13.8559 -22.32105,27.61155 -33.40253,41.48048 -10.83607,13.56171 -21.50942,27.25351 -32.35141,40.81042 -12.97047,16.21831 -26.08302,32.32296 -39.06253,48.53409 -14.11071,17.624 -28.15265,35.30312 -42.18461,52.98994 -1.53849,1.9392 -2.96018,4.00381 -4.18343,6.15398 -3.29323,5.78885 0.58803,11.39467 8.28544,11.53357 7.69944,0.13894 15.43234,-0.47334 23.1024,-0.49832 20.81454,-0.0679 41.60485,-1.06297 62.4175,-1.17486 10.4396,-0.0561 20.9034,-0.65911 31.36343,-0.58116 8.72803,0.0649 12.55396,5.65536 9.59997,13.87237 -0.44102,1.22684 -0.97187,2.43613 -1.59595,3.57997 -4.75866,8.72204 -9.5133,17.44664 -14.34016,26.13099 -11.36911,20.45495 -22.80249,40.8742 -34.16267,61.33414 -9.77342,17.60221 -19.45395,35.25597 -29.22558,52.85914 -11.40699,20.54916 -22.89182,41.05513 -34.2989,61.60423 -9.83136,17.71048 -19.58293,35.46521 -29.40259,53.18227 -11.71928,21.14433 -23.47353,42.26917 -35.21248,63.40258 -8.82025,15.87901 -17.68039,31.736 -26.43946,47.64872 -3.21301,5.83708 -6.210645,11.79357 -9.251975,17.72365 -0.747353,1.4572 -1.048773,3.0869 0.30285,4.36899 1.49863,1.42177 2.86018,0.33178 4.248695,-0.45436 4.67109,-2.6443 8.92887,-5.88931 13.25086,-9.03836 24.16034,-17.60344 48.28374,-35.25775 72.46578,-52.83135 33.70227,-24.49214 67.47913,-48.88172 101.15975,-73.40354 25.8557,-18.82484 51.56847,-37.84605 77.42331,-56.67213 33.67954,-24.52352 67.44576,-48.92793 101.15682,-73.40827 18.37128,-13.34081 36.70743,-26.73004 55.0561,-40.102 15.73287,-11.46566 31.45133,-22.95122 47.19385,-34.40377 18.37117,-13.36483 36.76133,-26.70373 55.14375,-40.05316 16.68519,-12.11692 33.37581,-24.22618 50.0544,-36.35193 8.13371,-5.91343 16.34128,-11.73253 24.31026,-17.86098 2.46062,-1.89232 5.77835,-4.16149 4.46662,-7.97796 -1.24107,-3.61077 -5.00803,-4.02298 -8.25017,-4.16251 -13.57188,-0.58408 -27.15086,-1.01883 -40.72501,-1.5415 -15.26535,-0.58781 -30.5408,-1.09674 -45.81044,-1.51769 -10.97334,-0.30248 -21.94175,-1.00384 -32.92602,-0.95925 -10.98439,0.0447 -21.94901,-0.76729 -32.92282,-1.0637 -5.3877,-0.14547 -10.96408,0.27938 -16.34465,-1.09984 -6.64449,-1.70317 -7.9051,-6.02926 -2.99069,-10.98355 4.41833,-4.45412 8.92828,-8.80366 13.59434,-13.02357 12.9785,-11.73749 25.48146,-23.99963 38.40524,-35.79945 4.25267,-3.88288 8.31703,-7.94772 12.54137,-11.84815 11.99316,-11.07344 24.10275,-22.02087 36.08534,-33.10562 9.49852,-8.78678 18.81859,-17.76651 28.32251,-26.5474 15.64829,-14.45782 31.38884,-28.8158 47.0758,-43.23183 10.38676,-9.54516 20.78005,-19.08358 31.11296,-28.68691 15.69898,-14.59045 31.312,-29.27336 47.02931,-43.84401 13.12258,-12.16519 26.48235,-24.07764 39.47624,-36.37759 11.10762,-10.51446 22.37462,-20.84999 33.61876,-31.21422 3.64993,-3.36433 7.15427,-6.91078 10.48248,-10.59328 3.70784,-4.10271 2.50209,-8.04651 -2.70635,-9.94297 -2.02821,-0.73849 -4.08815,-0.77643 -6.18596,-0.77585 -31.1847,0.009 -62.36935,0.009 -94.34037,0.0103 M 536.53388,589.8651 c -0.297,0.25731 -0.57612,0.53954 -0.89362,0.76851 -23.51736,16.95779 -47.08554,33.84582 -70.54539,50.8829 -26.6289,19.33868 -53.13709,38.84349 -79.74242,58.21465 -23.64303,17.21431 -47.36193,34.32433 -71.01396,51.52636 -5.90893,4.29754 -6.07053,7.54933 -0.8207,12.67613 11.45084,11.18249 24.17194,20.71167 37.72842,29.19182 17.3158,10.83162 35.30652,20.32508 54.21035,28.08373 21.19657,8.6996 43.04911,15.1258 65.59137,19.24118 15.0216,2.7424 30.14036,4.68197 45.4069,5.0172 21.70023,0.47661 43.31971,-0.21719 64.83164,-3.78906 19.6281,-3.2591 38.83559,-8.09859 57.57243,-14.58124 17.93066,-6.20372 35.04457,-14.4142 51.65272,-23.63436 24.11116,-13.38544 45.95878,-29.84274 65.99601,-48.72095 9.52514,-8.97417 18.15561,-18.80074 26.52442,-28.86173 16.62122,-19.98211 30.48416,-41.7784 41.77568,-65.11536 10.71891,-22.15355 18.87654,-45.29427 24.30016,-69.36726 4.01991,-17.8424 6.98176,-35.88412 7.76175,-54.10647 0.60827,-14.21063 0.64192,-28.49305 -0.40963,-42.76816 -1.19094,-16.16786 -3.58428,-32.08406 -7.06683,-47.89151 -8.26478,-37.51338 -22.93737,-72.3498 -43.48124,-104.74786 -17.61546,-27.77983 -39.40858,-51.99478 -63.60812,-74.12851 -3.46284,-3.16718 -7.04562,-6.21665 -10.71977,-9.13573 -3.92355,-3.11727 -7.4782,-2.91201 -11.31172,0.27731 -4.43285,3.68788 -8.59946,7.65468 -12.61816,11.7872 -4.34419,4.46723 -4.50387,7.34438 -0.003,11.65168 7.07869,6.77539 14.41277,13.2835 21.51502,20.03489 10.24035,9.73453 19.81337,20.14049 28.67397,31.11026 17.90192,22.16323 32.38221,46.46049 43.15352,72.86519 6.61746,16.22203 11.77612,32.91157 15.5059,50.07231 3.63919,16.74366 5.68792,33.67605 6.47436,50.72686 0.72266,15.66612 -0.21411,31.31148 -2.13967,46.92137 -2.19591,17.80061 -5.95174,35.22535 -11.31092,52.30132 -6.24062,19.88456 -14.56421,38.88388 -24.91349,56.99333 -11.45281,20.04066 -24.94575,38.59481 -40.79196,55.36247 -7.98887,8.45342 -16.36421,16.52612 -25.31753,24.03004 -15.18062,12.72308 -31.39366,23.90687 -48.78748,33.27252 -26.85227,14.45846 -55.2229,24.77601 -85.31851,30.28762 -21.11707,3.86726 -42.36815,5.86578 -63.81578,5.98057 -0.93812,0.004 -1.96434,0.16652 -3.07817,-0.94474 1.68252,-0.54134 2.88972,-0.96856 4.11884,-1.31902 9.784,-2.78968 19.67617,-5.24756 29.33722,-8.41161 18.97416,-6.21414 36.6829,-15.1932 53.38434,-26.07147 19.39576,-12.63315 36.30518,-28.18136 51.1737,-45.84122 16.34837,-19.41719 28.90934,-41.11151 38.38562,-64.73459 11.18565,-27.88426 15.91904,-56.88549 16.94762,-86.68589 0.15842,-4.58881 -1.06525,-9.05552 -0.8597,-13.67052 0.29706,-6.66619 -0.80595,-13.2976 -1.80017,-19.84101 -2.94042,-19.35233 -7.59424,-38.34265 -13.15265,-57.11104 -1.96884,-6.64787 -6.4212,-8.29785 -11.93837,-4.30168 -20.72975,15.01473 -41.46423,30.02301 -62.17185,45.06824 -27.99704,20.34141 -55.97093,40.71459 -84.39038,61.43533 m 49.79338,-210.47174 c -0.75599,0.50894 -1.59611,0.92735 -2.25564,1.54014 -15.60178,14.49666 -31.20227,28.99483 -46.74842,43.55098 -2.08841,1.95541 -4.25737,3.88165 -5.7281,6.42663 -1.86289,3.22351 -1.19952,6.15194 2.01657,7.97982 1.58907,0.90318 3.32381,1.56886 5.18406,1.65174 12.38526,0.55202 24.77077,1.46909 37.15816,1.50117 12.29687,0.0318 24.54739,1.43725 36.84762,0.90532 0.64954,-0.0281 1.30511,0.0665 1.95718,0.11263 13.02753,0.92419 26.08385,1.46615 39.1302,1.29478 7.55689,-0.0992 10.6909,-6.96711 6.31318,-13.09916 -2.71759,-3.80656 -5.68826,-7.51118 -9.00498,-10.79767 -14.19728,-14.06809 -29.05474,-27.41603 -44.65791,-39.9193 -7.58271,-6.07626 -13.34607,-6.49864 -20.21192,-1.14711"
   id="path1"
   sodipodi:nodetypes="csssssssssssssssscssssssssscsssssssssssssssssssssssssssssssccccsssssssssssssssssssssssssssssssssssscssscsscsssscccssscsscssssc"
   style="stroke-width:0.786274" />
</svg>
