<?xml version="1.0" encoding="UTF-8" standalone="no"?>
<svg
   version="1.1"
   id="Layer_1"
   x="0px"
   y="0px"
   width="100%"
   viewBox="0 0 1024 1024"
   enable-background="new 0 0 1024 1024"
   xml:space="preserve"
   sodipodi:docname="favicon.svg"
   inkscape:version="1.4.3 (0d15f75, 2025-12-25)"
   xmlns:inkscape="http://www.inkscape.org/namespaces/inkscape"
   xmlns:sodipodi="http://sodipodi.sourceforge.net/DTD/sodipodi-0.dtd"
   xmlns="http://www.w3.org/2000/svg"
   xmlns:svg="http://www.w3.org/2000/svg"><defs
   id="defs1" /><sodipodi:namedview
   id="namedview1"
   pagecolor="#505050"
   bordercolor="#ffffff"
   borderopacity="1"
   inkscape:showpageshadow="0"
   inkscape:pageopacity="0"
   inkscape:pagecheckerboard="1"
   inkscape:deskcolor="#505050"
   inkscape:zoom="0.59371524"
   inkscape:cx="453.92131"
   inkscape:cy="520.45152"
   inkscape:window-width="1512"
   inkscape:window-height="811"
   inkscape:window-x="0"
   inkscape:window-y="38"
   inkscape:window-maximized="0"
   inkscape:current-layer="Layer_1" />
<path
   fill="#000000"
   opacity="1"
   stroke="none"
   d="m 845.50012,16.352137 c -110.65082,0.01793 -221.30169,0.004 -331.95251,0.08834 -16.5185,0.0126 -30.90335,5.693173 -42.53339,17.641983 -9.40857,9.666481 -17.13067,20.744046 -25.60217,31.188778 -15.15393,18.683747 -29.91309,37.68723 -44.89508,56.51105 -19.02243,23.90031 -38.11026,47.74858 -57.15518,71.63105 -15.10431,18.94092 -30.14554,37.93232 -45.29029,56.84083 -14.1145,17.62223 -28.38833,35.11692 -42.48201,52.75569 -13.78152,17.24807 -27.35608,34.66156 -41.14515,51.9035 -16.4961,20.62677 -33.1729,41.10898 -49.68049,61.72662 -17.94627,22.41455 -35.8051,44.89924 -53.65123,67.39365 -1.95667,2.46631 -3.76483,5.09213 -5.32055,7.82678 -4.18841,7.36237 0.74785,14.49195 10.53756,14.66861 9.7923,0.1767 19.62716,-0.60199 29.3821,-0.63379 26.47235,-0.0863 52.91388,-1.35189 79.38382,-1.4942 13.27728,-0.0714 26.58536,-0.83826 39.88861,-0.73913 11.1005,0.0827 15.9664,7.19259 12.20944,17.64315 -0.56088,1.56031 -1.23602,3.09833 -2.02975,4.5531 -6.05216,11.09284 -12.09921,22.18897 -18.2381,33.23389 -14.45947,26.01502 -29.00066,51.98462 -43.44876,78.00598 -12.43004,22.38684 -24.74193,44.83924 -37.16968,67.2273 -14.50761,26.13482 -29.11427,52.21472 -43.62201,78.34948 -12.50372,22.52454 -24.90597,45.10535 -37.394811,67.63825 -14.904793,26.89178 -29.854103,53.75879 -44.783928,80.63666 -11.217777,20.19525 -22.486269,40.36248 -33.626215,60.60058 -4.086376,7.42371 -7.898819,14.99931 -11.766853,22.54131 -0.950485,1.8533 -1.333828,3.926 0.385167,5.5566 1.906008,1.8082 3.637646,0.4219 5.403582,-0.5779 5.940785,-3.3631 11.35591,-7.4901 16.852688,-11.4951 30.727622,-22.38849 61.408247,-44.84156 92.16343,-67.19202 42.86324,-31.1496 85.82131,-62.16876 128.65697,-93.35608 32.88381,-23.94183 65.5858,-48.13336 98.46849,-72.07672 42.83432,-31.18952 85.77887,-62.22754 128.65326,-93.36212 23.36496,-16.9671 46.68524,-33.99579 70.02143,-51.00251 20.00939,-14.58227 40.00042,-29.18982 60.02209,-43.75537 23.36481,-16.99768 46.75378,-33.96234 70.13293,-50.94043 21.22053,-15.41052 42.448,-30.81131 63.66016,-46.23312 10.34461,-7.52081 20.78314,-14.92163 30.91827,-22.71594 3.12946,-2.40668 7.349,-5.29267 5.68073,-10.14652 -1.57843,-4.59225 -6.36932,-5.11651 -10.49274,-5.29394 -17.26098,-0.74286 -34.531,-1.29578 -51.79486,-1.96054 -19.41479,-0.74756 -38.8424,-1.39484 -58.26263,-1.93021 -13.95612,-0.3847 -27.90595,-1.2767 -41.87598,-1.22 -13.97015,0.0567 -27.91516,-0.97586 -41.87188,-1.35282 -6.85218,-0.18502 -13.94434,0.35529 -20.78748,-1.3988 -8.45056,-2.16614 -10.05383,-7.66815 -3.80359,-13.96912 5.61932,-5.66482 11.35516,-11.19665 17.28955,-16.56362 16.50629,-14.92795 32.40784,-30.5232 48.84454,-45.53046 5.40863,-4.93832 10.57776,-10.10806 15.95038,-15.0687 15.25312,-14.08343 30.65436,-28.00659 45.89405,-42.10437 12.08038,-11.1752 23.93383,-22.59582 36.02111,-33.76351 19.9018,-18.38773 39.92096,-36.64852 59.87195,-54.9831 13.21008,-12.13974 26.42847,-24.27089 39.57007,-36.48457 19.96625,-18.55643 39.82324,-37.23047 59.81281,-55.76171 16.68957,-15.47192 33.68078,-30.622424 50.20666,-46.265734 14.12689,-13.372513 28.45648,-26.517437 42.75702,-39.698853 4.64203,-4.278797 9.09888,-8.789268 13.33179,-13.472759 4.71569,-5.217892 3.18225,-10.233706 -3.44196,-12.645659 -2.57953,-0.939211 -5.1994,-0.987465 -7.86743,-0.986732 -39.66132,0.01089 -79.32257,0.01089 -119.98395,0.01297 M 564.94434,629.50092 c -0.37775,0.32727 -0.73273,0.68621 -1.13654,0.97741 -29.90985,21.56726 -59.88431,43.04578 -89.72101,64.71387 -33.86716,24.59534 -67.58081,49.40192 -101.418,74.03857 -30.06967,21.8935 -60.23584,43.65436 -90.31695,65.53223 -7.51508,5.4657 -7.72065,9.60138 -1.0438,16.12177 14.56342,14.2221 30.74234,26.34149 47.98377,37.12671 22.02258,13.77587 44.9035,25.84985 68.94577,35.71746 26.95822,11.06433 54.75073,19.23731 83.42041,24.47132 19.10477,3.48785 38.3331,5.95459 57.74942,6.38098 27.59875,0.60614 55.09485,-0.27625 82.45416,-4.81903 24.96338,-4.14496 49.39185,-10.29993 73.22174,-18.54468 22.80457,-7.89002 44.57038,-18.33228 65.69294,-30.05866 30.66509,-17.02386 58.45129,-37.95458 83.93505,-61.96429 12.11426,-11.41351 23.09064,-23.91113 33.73426,-36.70691 21.13922,-25.41363 38.77038,-53.13458 53.13116,-82.815 13.63251,-28.17529 24.00757,-57.60614 30.9054,-88.22266 5.11261,-22.69232 8.87957,-45.63812 9.87158,-68.81366 0.77356,-18.07336 0.81634,-36.23803 -0.521,-54.3934 -1.51465,-20.56262 -4.55853,-40.80514 -8.98773,-60.90936 -10.51129,-47.71027 -29.17218,-92.01593 -55.30029,-133.2204 -22.40369,-35.33096 -50.12061,-66.12799 -80.89807,-94.27812 -4.40412,-4.02808 -8.96076,-7.90647 -13.63361,-11.61901 -4.99005,-3.9646 -9.51093,-3.70355 -14.38647,0.3527 -5.63776,4.69032 -10.93696,9.73538 -16.04804,14.99119 -5.52502,5.6815 -5.72809,9.34073 -0.005,14.81882 9.00281,8.61711 18.33044,16.89424 27.36322,25.48079 13.02387,12.38055 25.19904,25.61505 36.46814,39.56665 22.76801,28.18762 41.18433,59.08935 54.88348,92.67138 8.4162,20.6315 14.97712,41.85758 19.72071,63.68296 4.62841,21.29492 7.23401,42.82986 8.23425,64.51541 0.91907,19.9245 -0.27234,39.82257 -2.72131,59.67554 -2.79279,22.63916 -7.56952,44.80029 -14.38544,66.51788 -7.93695,25.28955 -18.52307,49.45325 -31.68549,72.48523 -14.56591,25.4881 -31.7265,49.08563 -51.88,70.41107 -10.1604,10.75122 -20.81232,21.01825 -32.19934,30.56189 -19.30701,16.18146 -39.92707,30.40521 -62.04889,42.31665 -34.15125,18.38855 -70.23358,31.51062 -108.50977,38.52039 -26.85711,4.91845 -53.88464,7.4602 -81.16217,7.6062 -1.19311,0.006 -2.49829,0.21179 -3.91485,-1.20154 2.13983,-0.68848 3.67517,-1.23181 5.2384,-1.67755 12.44348,-3.54797 25.02454,-6.67395 37.31165,-10.69806 24.13171,-7.90326 46.65405,-19.323 67.89526,-33.1582 24.66791,-16.06708 46.17365,-35.84162 65.08374,-58.30176 20.79218,-24.69519 36.76746,-52.28644 48.81958,-82.33075 14.22613,-35.46375 20.24615,-72.34808 21.55432,-110.24884 0.20148,-5.83612 -1.3548,-11.51697 -1.09338,-17.38642 0.3778,-8.4782 -1.02503,-16.91217 -2.28949,-25.23419 -3.73969,-24.61267 -9.65851,-48.76495 -16.72779,-72.63495 -2.50402,-8.45489 -8.16662,-10.55337 -15.18347,-5.47097 -26.3645,19.09604 -52.73504,38.18386 -79.07141,57.31869 -35.60718,25.87061 -71.18493,51.78162 -107.32934,78.13465 m 63.32867,-267.68213 c -0.96149,0.6473 -2.02997,1.17944 -2.86877,1.9588 -19.84266,18.43713 -39.68366,36.87619 -59.45557,55.389 -2.65607,2.48694 -5.41461,4.93674 -7.2851,8.1735 -2.36926,4.09973 -1.52557,7.82416 2.5647,10.14889 2.021,1.14869 4.2273,1.99533 6.5932,2.10074 15.75183,0.70206 31.50397,1.86841 47.25849,1.90921 15.6394,0.0405 31.21984,1.82791 46.86352,1.1514 0.82611,-0.0358 1.65985,0.0845 2.4892,0.14328 16.56866,1.17541 33.17395,1.86468 49.76654,1.64673 9.61102,-0.12619 13.59692,-8.8609 8.02924,-16.65976 -3.4563,-4.84125 -7.23444,-9.55286 -11.4527,-13.7327 -18.0564,-17.89209 -36.9524,-34.86825 -56.79682,-50.77017 -9.64386,-7.72788 -16.97381,-8.26508 -25.70593,-1.45892"
   id="path1"
   sodipodi:nodetypes="csssssssssssssssscssssssssscsssssssssssssssssssssssssssssssccccsssssssssssssssssssssssssssssssssssscssscsscsssscccssscsscssssc" />
</svg>
